<svg width="20" height="20" viewBox="0 0 20 20" fill="none" xmlns="http://www.w3.org/2000/svg">
<path d="M8.21174 16.424C3.6637 16.424 0 12.7602 0 8.212C0 3.66381 3.6637 0 8.21174 0C12.7598 0 16.4235 3.66381 16.4235 8.212C16.4235 12.7602 12.7598 16.424 8.21174 16.424ZM8.21174 1.26338C4.35854 1.26338 1.26334 4.35867 1.26334 8.212C1.26334 12.0653 4.35854 15.1606 8.21174 15.1606C12.0649 15.1606 15.1601 12.0653 15.1601 8.212C15.1601 4.35867 12.0649 1.26338 8.21174 1.26338Z" fill="#333333"/>
<path d="M14.3276 13.4342L20 19.1068L19.1068 20L13.4344 14.3274L14.3276 13.4342Z" fill="#333333"/>
</svg>
