<svg width="12" height="12" viewBox="0 0 12 12" fill="none" xmlns="http://www.w3.org/2000/svg">
<path d="M7.2 3.6H1.2C0.5382 3.6 0 4.1382 0 4.8V10.8C0 11.4618 0.5382 12 1.2 12H7.2C7.8618 12 8.4 11.4618 8.4 10.8V4.8C8.4 4.1382 7.8618 3.6 7.2 3.6Z" fill="#725E77"/>
<path d="M10.8 0H4.8C4.48174 0 4.17652 0.126428 3.95147 0.351472C3.72643 0.576515 3.6 0.88174 3.6 1.2V2.4H8.4C8.71826 2.4 9.02348 2.52643 9.24853 2.75147C9.47357 2.97652 9.6 3.28174 9.6 3.6V8.4H10.8C11.1183 8.4 11.4235 8.27357 11.6485 8.04853C11.8736 7.82348 12 7.51826 12 7.2V1.2C12 0.88174 11.8736 0.576515 11.6485 0.351472C11.4235 0.126428 11.1183 0 10.8 0Z" fill="#725E77"/>
</svg>
